<svg preserveAspectRatio="none" width="100%" height="100%" overflow="visible" style="display: block;" viewBox="0 0 68 90.0333" fill="none" xmlns="http://www.w3.org/2000/svg">
<g id="1746558241136">
<ellipse id="Ellipse 12" cx="6.29308" cy="69.4755" rx="6.29308" ry="7.55169" fill="var(--fill-0, #FF495C)"/>
<path id="Vector" d="M50.4421 87.2886C46.9449 87.2886 43.592 86.617 40.3866 85.2711C37.1801 83.9252 34.7022 82.1504 32.9531 79.943L34.9035 75.3421C36.6074 77.3868 38.8721 79.0427 41.6976 80.3072C44.5231 81.5718 47.4379 82.2034 50.4421 82.2034C54.6583 82.2034 57.8196 81.276 59.9271 79.4186C62.0347 77.5625 63.0895 75.1536 63.0895 72.1944C63.0895 69.934 62.5169 68.1308 61.3738 66.7862C60.2296 65.4403 58.8292 64.4044 57.1695 63.6785C55.5097 62.9513 53.2008 62.1582 50.2408 61.2967C29.6939 55.8395 49.7823 29.9922 42.2476 31.9142C38.6364 32.8351 46.424 29.9741 51.4517 29.8153C54.1416 29.73 56.7766 30.2596 59.3556 31.147C61.9346 32.0356 64.1648 33.2601 66.0485 34.8204L64.3672 39.5827C62.3942 38.0224 60.2866 36.8522 58.0435 36.072C55.8014 35.2906 53.6045 34.9354 51.4517 34.9005C40.2929 34.7223 37.9766 49.0841 45.0279 53.7496C46.6296 54.81 49.0751 55.2699 51.9899 56.1314C55.4429 57.1531 58.234 58.1619 60.3641 59.1577C62.4943 60.1536 64.2994 61.6597 65.7794 63.6785C67.2594 65.6961 68 68.4266 68 71.8715C68 74.7234 67.3606 77.3197 66.0829 79.6614C64.8042 82.0019 62.842 83.858 60.1962 85.231C57.5505 86.6028 54.2998 87.2886 50.4421 87.2886V87.2886Z" fill="var(--fill-0, #252627)"/>
<path id="Vector_2" d="M45.4821 20.6278V77.1324H41.379L11.108 31.2826V77.1324H6.13086V20.6278H10.234L40.5717 66.4776V20.6278H45.4821Z" fill="var(--fill-0, #252627)"/>
<path id="Vector_3" fill-rule="evenodd" clip-rule="evenodd" d="M42.9424 90.0333V0H44.0952V90.0333H42.9424Z" fill="var(--fill-0, #FF495C)"/>
</g>
</svg>
