<svg xmlns="http://www.w3.org/2000/svg" width="16" height="16" viewBox="0 0 16 16" fill="none">
<g clip-path="url(#clip0_28_470)">
<path d="M14.6615 11.2762V13.2756C14.6623 13.4612 14.6243 13.6449 14.5499 13.815C14.4756 13.985 14.3665 14.1377 14.2297 14.2631C14.093 14.3886 13.9315 14.4842 13.7557 14.5436C13.5799 14.6031 13.3936 14.6252 13.2087 14.6085C11.1579 14.3856 9.18804 13.6849 7.45728 12.5625C5.84704 11.5393 4.48184 10.1741 3.45862 8.56381C2.33231 6.82519 1.63139 4.84571 1.41264 2.78574C1.39598 2.60144 1.41788 2.4157 1.47695 2.24034C1.53601 2.06497 1.63094 1.90382 1.7557 1.76716C1.88045 1.63049 2.0323 1.5213 2.20157 1.44653C2.37083 1.37177 2.55382 1.33306 2.73886 1.33289H4.73819C5.06162 1.32971 5.37517 1.44424 5.62041 1.65514C5.86564 1.86604 6.02581 2.15891 6.07108 2.47917C6.15547 3.119 6.31197 3.74723 6.53759 4.35188C6.62726 4.59042 6.64666 4.84966 6.59351 5.09889C6.54036 5.34811 6.41687 5.57688 6.23769 5.75808L5.39131 6.60446C6.34003 8.27294 7.7215 9.65441 9.38997 10.6031L10.2364 9.75674C10.4176 9.57756 10.6463 9.45408 10.8955 9.40093C11.1448 9.34777 11.404 9.36718 11.6426 9.45684C12.2472 9.68247 12.8754 9.83897 13.5153 9.92336C13.839 9.96903 14.1347 10.1321 14.346 10.3815C14.5574 10.631 14.6697 10.9494 14.6615 11.2762Z" stroke="white" stroke-width="1.33289" stroke-linecap="round" stroke-linejoin="round"/>
</g>
<defs>
<clipPath id="clip0_28_470">
<rect width="15.9947" height="15.9947" fill="white"/>
</clipPath>
</defs>
</svg>