<svg width="48" height="48" viewBox="0 0 48 48" version="1.1" xmlns="http://www.w3.org/2000/svg" xmlns:xlink="http://www.w3.org/1999/xlink" xml:space="preserve" fill="#ffffff">
  <g id="SVGRepo_bgCarrier" stroke-width="0"></g>
  <g id="SVGRepo_tracerCarrier" stroke-linecap="round" stroke-linejoin="round"></g>
  <g id="SVGRepo_iconCarrier">
    <path style="fill:#ffffff;" d="M18 10C16.8954 10 16 10.8954 16 12V36C16 37.1046 16.8954 38 18 38H30C31.1046 38 32 37.1046 32 36V12C32 10.8954 31.1046 10 30 10H18ZM20 14C19.4477 14 19 14.4477 19 15C19 15.5523 19.4477 16 20 16H28C28.5523 16 29 15.5523 29 15C29 14.4477 28.5523 14 28 14H20ZM20 32C19.4477 32 19 32.4477 19 33C19 33.5523 19.4477 34 20 34H28C28.5523 34 29 33.5523 29 33C29 32.4477 28.5523 32 28 32H20Z"/>
  </g>
</svg>
